<svg id="Layer_1"  xmlns="http://www.w3.org/2000/svg" xmlns:xlink="http://www.w3.org/1999/xlink" viewBox="0 0 1080 1920"><defs><style>.cls-1{fill:none;}.cls-2{clip-path:url(#clip-path);}.cls-3{fill:url(#linear-gradient);}.cls-4{opacity:0.5;}.cls-5{fill:#3f3f40;}</style><clipPath id="clip-path"><rect class="cls-1" width="1080" height="1920"/></clipPath><linearGradient id="linear-gradient" x1="540" y1="1920" x2="540" gradientUnits="userSpaceOnUse"><stop offset="0" stop-color="#1a1a1a"/><stop offset="1" stop-color="#333"/></linearGradient></defs><title>BG</title><g class="cls-2"><rect class="cls-3" width="1080" height="1920"/><g class="cls-4"><polygon class="cls-5" points="972.93 1040.89 856.76 924.72 972.93 808.55 895.08 730.71 778.91 846.88 662.75 730.71 584.9 808.55 701.07 924.72 584.9 1040.89 662.75 1118.74 778.91 1002.57 895.08 1118.74 972.93 1040.89"/><polygon class="cls-5" points="972.93 1505.86 856.76 1389.69 972.93 1273.52 895.08 1195.67 778.91 1311.84 662.75 1195.67 584.9 1273.52 701.07 1389.69 584.9 1505.86 662.75 1583.7 778.91 1467.53 895.08 1583.7 972.93 1505.86"/><polygon class="cls-5" points="972.93 1970.82 856.76 1854.65 972.93 1738.48 895.08 1660.64 778.91 1776.81 662.75 1660.64 584.9 1738.48 701.07 1854.65 584.9 1970.82 662.75 2048.67 778.91 1932.5 895.08 2048.67 972.93 1970.82"/></g></g></svg>
