<svg id="Layer_1"  xmlns="http://www.w3.org/2000/svg" xmlns:xlink="http://www.w3.org/1999/xlink" viewBox="0 0 1943.85 1920"><defs><style>.cls-1{fill:none;}.cls-2{clip-path:url(#clip-path);}.cls-3{fill:url(#linear-gradient);}.cls-4{opacity:0.5;}.cls-5{fill:#3f3f40;}</style><clipPath id="clip-path"><rect class="cls-1" width="1943.85" height="1920"/></clipPath><linearGradient id="linear-gradient" x1="971.92" y1="1920" x2="971.92" gradientUnits="userSpaceOnUse"><stop offset="0" stop-color="#1a1a1a"/><stop offset="1" stop-color="#333"/></linearGradient></defs><title>BG2</title><g class="cls-2"><rect class="cls-3" width="1943.85" height="1920"/><g class="cls-4"><polygon class="cls-5" points="1836.78 1040.89 1720.61 924.72 1836.78 808.55 1758.93 730.71 1642.76 846.88 1526.59 730.71 1448.75 808.55 1564.91 924.72 1448.75 1040.89 1526.59 1118.74 1642.76 1002.57 1758.93 1118.74 1836.78 1040.89"/><polygon class="cls-5" points="1836.78 1505.86 1720.61 1389.69 1836.78 1273.52 1758.93 1195.67 1642.76 1311.84 1526.59 1195.67 1448.75 1273.52 1564.91 1389.69 1448.75 1505.86 1526.59 1583.7 1642.76 1467.53 1758.93 1583.7 1836.78 1505.86"/><polygon class="cls-5" points="1836.78 1970.82 1720.61 1854.65 1836.78 1738.48 1758.93 1660.64 1642.76 1776.81 1526.59 1660.64 1448.75 1738.48 1564.91 1854.65 1448.75 1970.82 1526.59 2048.67 1642.76 1932.5 1758.93 2048.67 1836.78 1970.82"/></g><rect class="cls-1" x="863.85" width="1080" height="1920"/></g></svg>
